<svg width="21" height="19" viewBox="0 0 21 19" fill="none" xmlns="http://www.w3.org/2000/svg">
<path d="M14.9766 0C13.2366 0 11.5666 0.81 10.4766 2.09C9.38656 0.81 7.71656 0 5.97656 0C2.89656 0 0.476562 2.42 0.476562 5.5C0.476562 9.28 3.87656 12.36 9.02656 17.04L10.4766 18.35L11.9266 17.03C17.0766 12.36 20.4766 9.28 20.4766 5.5C20.4766 2.42 18.0566 0 14.9766 0ZM10.5766 15.55L10.4766 15.65L10.3766 15.55C5.61656 11.24 2.47656 8.39 2.47656 5.5C2.47656 3.5 3.97656 2 5.97656 2C7.51656 2 9.01656 2.99 9.54656 4.36H11.4166C11.9366 2.99 13.4366 2 14.9766 2C16.9766 2 18.4766 3.5 18.4766 5.5C18.4766 8.39 15.3366 11.24 10.5766 15.55Z" fill="black"/>
</svg>
