<svg version="1.2" xmlns="http://www.w3.org/2000/svg" viewBox="0 0 21 18" width="21" height="18">
	<title>history-svg</title>
	<style>
		.s0 { fill: #000000 } 
	</style>
	<path id="Layer" fill-rule="evenodd" class="s0" d="m20.5 8.7c0.1 5.1-4 9.3-9 9.3-2.1 0-4-0.7-5.5-1.9-0.5-0.4-0.5-1.1-0.1-1.5 0.3-0.4 0.9-0.4 1.3-0.1 1.2 0.9 2.7 1.5 4.3 1.5 3.9 0 7-3.2 7-7.1-0.1-3.7-3.2-6.9-6.9-6.9-3.9-0.1-7.1 3.1-7.1 7h1.8c0.4 0 0.6 0.5 0.3 0.8l-2.8 2.8c-0.2 0.2-0.5 0.2-0.7 0l-2.8-2.8c-0.3-0.3-0.1-0.8 0.4-0.8h1.8c0-5.1 4.1-9.1 9.2-9 4.7 0.1 8.6 4 8.8 8.7zm-8.5-3v3.4l2.9 1.7c0.3 0.3 0.4 0.7 0.2 1.1-0.2 0.3-0.7 0.4-1 0.2l-3.1-1.8c-0.3-0.2-0.5-0.5-0.5-0.9v-3.7c0-0.4 0.3-0.7 0.7-0.7 0.4 0 0.8 0.3 0.8 0.7z"/>
</svg>