<svg version="1.2" xmlns="http://www.w3.org/2000/svg" viewBox="0 0 21 20" width="21" height="20">
	<title>cart-svg</title>
	<style>
		.s0 { fill: #000000 } 
	</style>
	<path id="Layer" class="s0" d="m6.5 16c-1.1 0-2 0.9-2 2 0 1.1 0.9 2 2 2 1.1 0 2-0.9 2-2 0-1.1-0.9-2-2-2zm10 0c-1.1 0-2 0.9-2 2 0 1.1 0.9 2 2 2 1.1 0 2-0.9 2-2 0-1.1-0.9-2-2-2zm-9.9-3.3l0.1-0.1 0.9-1.6h7.4c0.8 0 1.4-0.4 1.8-1l3.8-7-1.7-1-1.1 2-2.8 5h-7l-0.1-0.3-2.3-4.7-0.9-2-1-2h-3.2v2h2l3.6 7.6-1.4 2.4q-0.2 0.5-0.2 1c0 1.1 0.9 2 2 2h12v-2h-11.6c-0.1 0-0.3-0.1-0.3-0.2z"/>
</svg>