<svg version="1.2" xmlns="http://www.w3.org/2000/svg" viewBox="0 0 17 16" width="17" height="16">
	<title>user-svg</title>
	<style>
		.s0 { fill: #000000 } 
	</style>
	<path id="Layer" fill-rule="evenodd" class="s0" d="m12.5 4c0 2.2-1.8 4-4 4-2.2 0-4-1.8-4-4 0-2.2 1.8-4 4-4 2.2 0 4 1.8 4 4zm4 9v3h-16v-3c0-2.7 5.3-4 8-4 2.6 0 8 1.3 8 4zm-10.1-9c0 1.2 0.9 2.1 2.1 2.1 1.1 0 2.1-0.9 2.1-2.1 0-1.2-1-2.1-2.1-2.1-1.2 0-2.1 0.9-2.1 2.1zm-4 9v1.1h12.2v-1.1c0-0.6-3.2-2.1-6.1-2.1-3 0-6.1 1.5-6.1 2.1z"/>
</svg>